{
	"asset":{
		"generator":"Khronos glTF Blender I/O v4.0.44",
		"version":"2.0"
	},
	"scene":0,
	"scenes":[
		{
			"name":"Scene",
			"nodes":[
				0,
				1,
				2,
				3,
				4,
				5,
				6,
				7,
				8,
				9,
				10,
				11
			]
		}
	],
	"nodes":[
		{
			"name":"Empty",
			"translation":[
				0,
				0,
				0.04472442716360092
			]
		},
		{
			"name":"Empty.001",
			"rotation":[
				0.5,
				0.5,
				-0.5,
				0.5
			],
			"translation":[
				-2.119555711746216,
				2.0335845947265625,
				0
			]
		},
		{
			"name":"Empty.002",
			"rotation":[
				0.70710688829422,
				0,
				0,
				0.7071066498756409
			],
			"translation":[
				0,
				2.033848285675049,
				-2.465073823928833
			]
		},
		{
			"mesh":0,
			"name":"ChairLeg",
			"rotation":[
				0,
				0,
				0.08016042411327362,
				0.9967820048332214
			],
			"translation":[
				1.271986484527588,
				0.0030593834817409515,
				1.068234920501709
			]
		},
		{
			"mesh":1,
			"name":"ChairSeat",
			"translation":[
				0,
				3.7704620361328125,
				-0.08672225475311279
			]
		},
		{
			"mesh":2,
			"name":"ChairBack",
			"rotation":[
				0.7071068286895752,
				0,
				0,
				0.7071068286895752
			],
			"translation":[
				0,
				3.3455801010131836,
				-1.1759313344955444
			]
		},
		{
			"mesh":3,
			"name":"ChairRung.Front",
			"translation":[
				-0.0010655149817466736,
				1.476960301399231,
				0.968353271484375
			]
		},
		{
			"mesh":4,
			"name":"ChairRung.Back",
			"rotation":[
				0.05302279070019722,
				0,
				0,
				0.9985933899879456
			],
			"translation":[
				-0.0010655149817466736,
				1.3976726531982422,
				-0.9271731376647949
			]
		},
		{
			"mesh":5,
			"name":"ScrewSeat.Top",
			"rotation":[
				-0.0252104289829731,
				-0.0002788254350889474,
				-0.11094968020915985,
				0.9935061931610107
			],
			"translation":[
				-0.8880746364593506,
				2.328803300857544,
				-0.20193207263946533
			]
		},
		{
			"mesh":6,
			"name":"ScrewSeat.Bottom",
			"rotation":[
				-0.027089623734354973,
				0.0003214680473320186,
				-0.0962633565068245,
				0.9949871301651001
			],
			"translation":[
				-0.8797269463539124,
				2.374223470687866,
				0.7165030837059021
			]
		},
		{
			"mesh":7,
			"name":"ScrewBack.Top",
			"rotation":[
				0.637847900390625,
				0.13794884085655212,
				-0.19632482528686523,
				0.7318310737609863
			],
			"translation":[
				-0.6717283129692078,
				3.6690032482147217,
				-0.9596880078315735
			]
		},
		{
			"mesh":8,
			"name":"ScrewBack.Bottom",
			"rotation":[
				0.6236556172370911,
				0.1722041666507721,
				-0.23338033258914948,
				0.7259015440940857
			],
			"translation":[
				-0.7835348844528198,
				3.0178558826446533,
				-0.7782760262489319
			]
		}
	],
	"materials":[
		{
			"doubleSided":true,
			"name":"Chair",
			"normalTexture":{
				"index":0
			},
			"pbrMetallicRoughness":{
				"baseColorTexture":{
					"index":1
				},
				"metallicRoughnessTexture":{
					"index":2
				}
			}
		},
		{
			"doubleSided":true,
			"name":"Screw",
			"normalTexture":{
				"index":3
			},
			"pbrMetallicRoughness":{
				"baseColorTexture":{
					"index":4
				},
				"metallicRoughnessTexture":{
					"index":5
				}
			}
		}
	],
	"meshes":[
		{
			"name":"Cube.001",
			"primitives":[
				{
					"attributes":{
						"POSITION":0,
						"NORMAL":1,
						"TEXCOORD_0":2,
						"TANGENT":3
					},
					"indices":4,
					"material":0
				}
			]
		},
		{
			"name":"Plane",
			"primitives":[
				{
					"attributes":{
						"POSITION":5,
						"NORMAL":6,
						"TEXCOORD_0":7,
						"TANGENT":8
					},
					"indices":9,
					"material":0
				}
			]
		},
		{
			"name":"Plane.001",
			"primitives":[
				{
					"attributes":{
						"POSITION":10,
						"NORMAL":11,
						"TEXCOORD_0":12,
						"TANGENT":13
					},
					"indices":14,
					"material":0
				}
			]
		},
		{
			"name":"Cube",
			"primitives":[
				{
					"attributes":{
						"POSITION":15,
						"NORMAL":16,
						"TEXCOORD_0":17,
						"TANGENT":18
					},
					"indices":19,
					"material":0
				}
			]
		},
		{
			"name":"Cube.002",
			"primitives":[
				{
					"attributes":{
						"POSITION":20,
						"NORMAL":21,
						"TEXCOORD_0":22,
						"TANGENT":23
					},
					"indices":24,
					"material":0
				}
			]
		},
		{
			"name":"Circle",
			"primitives":[
				{
					"attributes":{
						"POSITION":25,
						"NORMAL":26,
						"TEXCOORD_0":27
					},
					"indices":28,
					"material":1
				}
			]
		},
		{
			"name":"Circle.002",
			"primitives":[
				{
					"attributes":{
						"POSITION":29,
						"NORMAL":30,
						"TEXCOORD_0":31
					},
					"indices":32,
					"material":1
				}
			]
		},
		{
			"name":"Circle.003",
			"primitives":[
				{
					"attributes":{
						"POSITION":33,
						"NORMAL":34,
						"TEXCOORD_0":35
					},
					"indices":36,
					"material":1
				}
			]
		},
		{
			"name":"Circle.004",
			"primitives":[
				{
					"attributes":{
						"POSITION":37,
						"NORMAL":38,
						"TEXCOORD_0":39
					},
					"indices":40,
					"material":1
				}
			]
		}
	],
	"textures":[
		{
			"sampler":0,
			"source":0
		},
		{
			"sampler":0,
			"source":1
		},
		{
			"sampler":0,
			"source":2
		},
		{
			"sampler":0,
			"source":3
		},
		{
			"sampler":0,
			"source":4
		},
		{
			"sampler":0,
			"source":5
		}
	],
	"images":[
		{
			"mimeType":"image/png",
			"name":"VeneerWhiteOakRandomMatched001_NRM_2K_METALNESS",
			"uri":"VeneerWhiteOakRandomMatched001_NRM_2K_METALNESS.png"
		},
		{
			"mimeType":"image/png",
			"name":"VeneerWhiteOakRandomMatched001_COL_2K_METALNESS",
			"uri":"VeneerWhiteOakRandomMatched001_COL_2K_METALNESS.png"
		},
		{
			"mimeType":"image/png",
			"name":"VeneerWhiteOakRandomMatched001_METALNESS_2K_METALNESS-VeneerWhiteOakRandomMatched001_DISP_2K_METALNESS",
			"uri":"VeneerWhiteOakRandomMatched001_METALNESS_2K_METALNESS-VeneerWhiteOakRandomMatched001_DISP_2K_METALNESS.png"
		},
		{
			"mimeType":"image/png",
			"name":"reinforced-metal_normal-ogl",
			"uri":"reinforced-metal_normal-ogl.png"
		},
		{
			"mimeType":"image/png",
			"name":"reinforced-metal_albedo",
			"uri":"reinforced-metal_albedo.png"
		},
		{
			"mimeType":"image/png",
			"name":"reinforced-metal_metallic-reinforced-metal_roughness",
			"uri":"reinforced-metal_metallic-reinforced-metal_roughness.png"
		}
	],
	"accessors":[
		{
			"bufferView":0,
			"componentType":5126,
			"count":47208,
			"max":[
				0.051196884363889694,
				4.03166389465332,
				0.08616189658641815
			],
			"min":[
				-2.553427219390869,
				-0.008840504102408886,
				-2.219547748565674
			],
			"type":"VEC3"
		},
		{
			"bufferView":1,
			"componentType":5126,
			"count":47208,
			"type":"VEC3"
		},
		{
			"bufferView":2,
			"componentType":5126,
			"count":47208,
			"type":"VEC2"
		},
		{
			"bufferView":3,
			"componentType":5126,
			"count":47208,
			"type":"VEC4"
		},
		{
			"bufferView":4,
			"componentType":5123,
			"count":268224,
			"type":"SCALAR"
		},
		{
			"bufferView":5,
			"componentType":5126,
			"count":3320,
			"max":[
				1.2906179428100586,
				-1.282983422279358,
				1.3503249883651733
			],
			"min":[
				-1.2906179428100586,
				-1.613458275794983,
				-0.6866564154624939
			],
			"type":"VEC3"
		},
		{
			"bufferView":6,
			"componentType":5126,
			"count":3320,
			"type":"VEC3"
		},
		{
			"bufferView":7,
			"componentType":5126,
			"count":3320,
			"type":"VEC2"
		},
		{
			"bufferView":8,
			"componentType":5126,
			"count":3320,
			"type":"VEC4"
		},
		{
			"bufferView":9,
			"componentType":5123,
			"count":18144,
			"type":"SCALAR"
		},
		{
			"bufferView":10,
			"componentType":5126,
			"count":4198,
			"max":[
				1.2200359106063843,
				0.6302255392074585,
				0.7314063310623169
			],
			"min":[
				-1.2200359106063843,
				-0.08616894483566284,
				-0.7475188374519348
			],
			"type":"VEC3"
		},
		{
			"bufferView":11,
			"componentType":5126,
			"count":4198,
			"type":"VEC3"
		},
		{
			"bufferView":12,
			"componentType":5126,
			"count":4198,
			"type":"VEC2"
		},
		{
			"bufferView":13,
			"componentType":5126,
			"count":4198,
			"type":"VEC4"
		},
		{
			"bufferView":14,
			"componentType":5123,
			"count":23232,
			"type":"SCALAR"
		},
		{
			"bufferView":15,
			"componentType":5126,
			"count":297,
			"max":[
				0.983373761177063,
				0.3177643418312073,
				0.0162308681756258
			],
			"min":[
				-0.983373761177063,
				0.013501659035682678,
				-0.05770156532526016
			],
			"type":"VEC3"
		},
		{
			"bufferView":16,
			"componentType":5126,
			"count":297,
			"type":"VEC3"
		},
		{
			"bufferView":17,
			"componentType":5126,
			"count":297,
			"type":"VEC2"
		},
		{
			"bufferView":18,
			"componentType":5126,
			"count":297,
			"type":"VEC4"
		},
		{
			"bufferView":19,
			"componentType":5123,
			"count":1536,
			"type":"SCALAR"
		},
		{
			"bufferView":20,
			"componentType":5126,
			"count":299,
			"max":[
				0.9962810277938843,
				0.320148766040802,
				0.01658593863248825
			],
			"min":[
				-0.9962810277938843,
				0.013532847166061401,
				-0.05433487147092819
			],
			"type":"VEC3"
		},
		{
			"bufferView":21,
			"componentType":5126,
			"count":299,
			"type":"VEC3"
		},
		{
			"bufferView":22,
			"componentType":5126,
			"count":299,
			"type":"VEC2"
		},
		{
			"bufferView":23,
			"componentType":5126,
			"count":299,
			"type":"VEC4"
		},
		{
			"bufferView":24,
			"componentType":5123,
			"count":1536,
			"type":"SCALAR"
		},
		{
			"bufferView":25,
			"componentType":5126,
			"count":196,
			"max":[
				0.029999999329447746,
				6.995649073360255e-07,
				0.029999999329447746
			],
			"min":[
				-0.029999999329447746,
				-0.0020852088928222656,
				-0.029999999329447746
			],
			"type":"VEC3"
		},
		{
			"bufferView":26,
			"componentType":5126,
			"count":196,
			"type":"VEC3"
		},
		{
			"bufferView":27,
			"componentType":5126,
			"count":196,
			"type":"VEC2"
		},
		{
			"bufferView":28,
			"componentType":5123,
			"count":354,
			"type":"SCALAR"
		},
		{
			"bufferView":29,
			"componentType":5126,
			"count":196,
			"max":[
				0.029999999329447746,
				6.995649073360255e-07,
				0.029999999329447746
			],
			"min":[
				-0.029999999329447746,
				-0.0020852088928222656,
				-0.029999999329447746
			],
			"type":"VEC3"
		},
		{
			"bufferView":30,
			"componentType":5126,
			"count":196,
			"type":"VEC3"
		},
		{
			"bufferView":31,
			"componentType":5126,
			"count":196,
			"type":"VEC2"
		},
		{
			"bufferView":32,
			"componentType":5123,
			"count":354,
			"type":"SCALAR"
		},
		{
			"bufferView":33,
			"componentType":5126,
			"count":196,
			"max":[
				0.029999999329447746,
				6.995649073360255e-07,
				0.029999999329447746
			],
			"min":[
				-0.029999999329447746,
				-0.0020852088928222656,
				-0.029999999329447746
			],
			"type":"VEC3"
		},
		{
			"bufferView":34,
			"componentType":5126,
			"count":196,
			"type":"VEC3"
		},
		{
			"bufferView":35,
			"componentType":5126,
			"count":196,
			"type":"VEC2"
		},
		{
			"bufferView":36,
			"componentType":5123,
			"count":354,
			"type":"SCALAR"
		},
		{
			"bufferView":37,
			"componentType":5126,
			"count":196,
			"max":[
				0.029999999329447746,
				6.995649073360255e-07,
				0.029999999329447746
			],
			"min":[
				-0.029999999329447746,
				-0.0020852088928222656,
				-0.029999999329447746
			],
			"type":"VEC3"
		},
		{
			"bufferView":38,
			"componentType":5126,
			"count":196,
			"type":"VEC3"
		},
		{
			"bufferView":39,
			"componentType":5126,
			"count":196,
			"type":"VEC2"
		},
		{
			"bufferView":40,
			"componentType":5123,
			"count":354,
			"type":"SCALAR"
		}
	],
	"bufferViews":[
		{
			"buffer":0,
			"byteLength":566496,
			"byteOffset":0,
			"target":34962
		},
		{
			"buffer":0,
			"byteLength":566496,
			"byteOffset":566496,
			"target":34962
		},
		{
			"buffer":0,
			"byteLength":377664,
			"byteOffset":1132992,
			"target":34962
		},
		{
			"buffer":0,
			"byteLength":755328,
			"byteOffset":1510656,
			"target":34962
		},
		{
			"buffer":0,
			"byteLength":536448,
			"byteOffset":2265984,
			"target":34963
		},
		{
			"buffer":0,
			"byteLength":39840,
			"byteOffset":2802432,
			"target":34962
		},
		{
			"buffer":0,
			"byteLength":39840,
			"byteOffset":2842272,
			"target":34962
		},
		{
			"buffer":0,
			"byteLength":26560,
			"byteOffset":2882112,
			"target":34962
		},
		{
			"buffer":0,
			"byteLength":53120,
			"byteOffset":2908672,
			"target":34962
		},
		{
			"buffer":0,
			"byteLength":36288,
			"byteOffset":2961792,
			"target":34963
		},
		{
			"buffer":0,
			"byteLength":50376,
			"byteOffset":2998080,
			"target":34962
		},
		{
			"buffer":0,
			"byteLength":50376,
			"byteOffset":3048456,
			"target":34962
		},
		{
			"buffer":0,
			"byteLength":33584,
			"byteOffset":3098832,
			"target":34962
		},
		{
			"buffer":0,
			"byteLength":67168,
			"byteOffset":3132416,
			"target":34962
		},
		{
			"buffer":0,
			"byteLength":46464,
			"byteOffset":3199584,
			"target":34963
		},
		{
			"buffer":0,
			"byteLength":3564,
			"byteOffset":3246048,
			"target":34962
		},
		{
			"buffer":0,
			"byteLength":3564,
			"byteOffset":3249612,
			"target":34962
		},
		{
			"buffer":0,
			"byteLength":2376,
			"byteOffset":3253176,
			"target":34962
		},
		{
			"buffer":0,
			"byteLength":4752,
			"byteOffset":3255552,
			"target":34962
		},
		{
			"buffer":0,
			"byteLength":3072,
			"byteOffset":3260304,
			"target":34963
		},
		{
			"buffer":0,
			"byteLength":3588,
			"byteOffset":3263376,
			"target":34962
		},
		{
			"buffer":0,
			"byteLength":3588,
			"byteOffset":3266964,
			"target":34962
		},
		{
			"buffer":0,
			"byteLength":2392,
			"byteOffset":3270552,
			"target":34962
		},
		{
			"buffer":0,
			"byteLength":4784,
			"byteOffset":3272944,
			"target":34962
		},
		{
			"buffer":0,
			"byteLength":3072,
			"byteOffset":3277728,
			"target":34963
		},
		{
			"buffer":0,
			"byteLength":2352,
			"byteOffset":3280800,
			"target":34962
		},
		{
			"buffer":0,
			"byteLength":2352,
			"byteOffset":3283152,
			"target":34962
		},
		{
			"buffer":0,
			"byteLength":1568,
			"byteOffset":3285504,
			"target":34962
		},
		{
			"buffer":0,
			"byteLength":708,
			"byteOffset":3287072,
			"target":34963
		},
		{
			"buffer":0,
			"byteLength":2352,
			"byteOffset":3287780,
			"target":34962
		},
		{
			"buffer":0,
			"byteLength":2352,
			"byteOffset":3290132,
			"target":34962
		},
		{
			"buffer":0,
			"byteLength":1568,
			"byteOffset":3292484,
			"target":34962
		},
		{
			"buffer":0,
			"byteLength":708,
			"byteOffset":3294052,
			"target":34963
		},
		{
			"buffer":0,
			"byteLength":2352,
			"byteOffset":3294760,
			"target":34962
		},
		{
			"buffer":0,
			"byteLength":2352,
			"byteOffset":3297112,
			"target":34962
		},
		{
			"buffer":0,
			"byteLength":1568,
			"byteOffset":3299464,
			"target":34962
		},
		{
			"buffer":0,
			"byteLength":708,
			"byteOffset":3301032,
			"target":34963
		},
		{
			"buffer":0,
			"byteLength":2352,
			"byteOffset":3301740,
			"target":34962
		},
		{
			"buffer":0,
			"byteLength":2352,
			"byteOffset":3304092,
			"target":34962
		},
		{
			"buffer":0,
			"byteLength":1568,
			"byteOffset":3306444,
			"target":34962
		},
		{
			"buffer":0,
			"byteLength":708,
			"byteOffset":3308012,
			"target":34963
		}
	],
	"samplers":[
		{
			"magFilter":9729,
			"minFilter":9987
		}
	],
	"buffers":[
		{
			"byteLength":3308720,
			"uri":"chair.bin"
		}
	]
}
