{
	"asset":{
		"generator":"Khronos glTF Blender I/O v4.0.44",
		"version":"2.0"
	},
	"scene":0,
	"scenes":[
		{
			"name":"Scene",
			"nodes":[
				0,
				1,
				2,
				3,
				4,
				5,
				6,
				7,
				8,
				9,
				10,
				11
			]
		}
	],
	"nodes":[
		{
			"name":"Empty",
			"translation":[
				0,
				0,
				0.04472442716360092
			]
		},
		{
			"name":"Empty.001",
			"rotation":[
				0.5,
				0.5,
				-0.5,
				0.5
			],
			"translation":[
				-2.119555711746216,
				2.0335845947265625,
				0
			]
		},
		{
			"name":"Empty.002",
			"rotation":[
				0.70710688829422,
				0,
				0,
				0.7071066498756409
			],
			"translation":[
				0,
				2.033848285675049,
				-2.465073823928833
			]
		},
		{
			"mesh":0,
			"name":"ChairLeg"
		},
		{
			"mesh":1,
			"name":"ChairSeat"
		},
		{
			"mesh":2,
			"name":"ChairBack"
		},
		{
			"mesh":3,
			"name":"ChairRung.Front"
		},
		{
			"mesh":4,
			"name":"ChairRung.Back"
		},
		{
			"mesh":5,
			"name":"ScrewSeat.Top"
		},
		{
			"mesh":6,
			"name":"ScrewSeat.Bottom"
		},
		{
			"mesh":7,
			"name":"ScrewBack.Top"
		},
		{
			"mesh":8,
			"name":"ScrewBack.Bottom"
		}
	],
	"materials":[
		{
			"doubleSided":true,
			"name":"Chair",
			"normalTexture":{
				"index":0
			},
			"pbrMetallicRoughness":{
				"baseColorTexture":{
					"index":1
				},
				"metallicRoughnessTexture":{
					"index":2
				}
			}
		},
		{
			"doubleSided":true,
			"name":"Screw",
			"normalTexture":{
				"index":3
			},
			"pbrMetallicRoughness":{
				"baseColorTexture":{
					"index":4
				},
				"metallicRoughnessTexture":{
					"index":5
				}
			}
		}
	],
	"meshes":[
		{
			"name":"Cube.001",
			"primitives":[
				{
					"attributes":{
						"POSITION":0,
						"NORMAL":1,
						"TEXCOORD_0":2,
						"TANGENT":3
					},
					"indices":4,
					"material":0
				}
			]
		},
		{
			"name":"Plane",
			"primitives":[
				{
					"attributes":{
						"POSITION":5,
						"NORMAL":6,
						"TEXCOORD_0":7,
						"TANGENT":8
					},
					"indices":9,
					"material":0
				}
			]
		},
		{
			"name":"Plane.001",
			"primitives":[
				{
					"attributes":{
						"POSITION":10,
						"NORMAL":11,
						"TEXCOORD_0":12,
						"TANGENT":13
					},
					"indices":14,
					"material":0
				}
			]
		},
		{
			"name":"Cube",
			"primitives":[
				{
					"attributes":{
						"POSITION":15,
						"NORMAL":16,
						"TEXCOORD_0":17,
						"TANGENT":18
					},
					"indices":19,
					"material":0
				}
			]
		},
		{
			"name":"Cube.002",
			"primitives":[
				{
					"attributes":{
						"POSITION":20,
						"NORMAL":21,
						"TEXCOORD_0":22,
						"TANGENT":23
					},
					"indices":24,
					"material":0
				}
			]
		},
		{
			"name":"Circle",
			"primitives":[
				{
					"attributes":{
						"POSITION":25,
						"NORMAL":26,
						"TEXCOORD_0":27
					},
					"indices":28,
					"material":1
				}
			]
		},
		{
			"name":"Circle.002",
			"primitives":[
				{
					"attributes":{
						"POSITION":29,
						"NORMAL":30,
						"TEXCOORD_0":31
					},
					"indices":32,
					"material":1
				}
			]
		},
		{
			"name":"Circle.003",
			"primitives":[
				{
					"attributes":{
						"POSITION":33,
						"NORMAL":34,
						"TEXCOORD_0":35
					},
					"indices":36,
					"material":1
				}
			]
		},
		{
			"name":"Circle.004",
			"primitives":[
				{
					"attributes":{
						"POSITION":37,
						"NORMAL":38,
						"TEXCOORD_0":39
					},
					"indices":40,
					"material":1
				}
			]
		}
	],
	"textures":[
		{
			"sampler":0,
			"source":0
		},
		{
			"sampler":0,
			"source":1
		},
		{
			"sampler":0,
			"source":2
		},
		{
			"sampler":0,
			"source":3
		},
		{
			"sampler":0,
			"source":4
		},
		{
			"sampler":0,
			"source":5
		}
	],
	"images":[
		{
			"mimeType":"image/png",
			"name":"VeneerWhiteOakRandomMatched001_NRM_2K_METALNESS",
			"uri":"VeneerWhiteOakRandomMatched001_NRM_2K_METALNESS.png"
		},
		{
			"mimeType":"image/png",
			"name":"VeneerWhiteOakRandomMatched001_COL_2K_METALNESS",
			"uri":"VeneerWhiteOakRandomMatched001_COL_2K_METALNESS.png"
		},
		{
			"mimeType":"image/png",
			"name":"VeneerWhiteOakRandomMatched001_METALNESS_2K_METALNESS-VeneerWhiteOakRandomMatched001_DISP_2K_METALNESS",
			"uri":"VeneerWhiteOakRandomMatched001_METALNESS_2K_METALNESS-VeneerWhiteOakRandomMatched001_DISP_2K_METALNESS.png"
		},
		{
			"mimeType":"image/png",
			"name":"reinforced-metal_normal-ogl",
			"uri":"reinforced-metal_normal-ogl.png"
		},
		{
			"mimeType":"image/png",
			"name":"reinforced-metal_albedo",
			"uri":"reinforced-metal_albedo.png"
		},
		{
			"mimeType":"image/png",
			"name":"reinforced-metal_metallic-reinforced-metal_roughness",
			"uri":"reinforced-metal_metallic-reinforced-metal_roughness.png"
		}
	],
	"accessors":[
		{
			"bufferView":0,
			"componentType":5126,
			"count":47208,
			"max":[
				1.3162195682525635,
				4.2105183601379395,
				1.3097105026245117
			],
			"min":[
				-1.3162195682525635,
				0.33582448959350586,
				-0.9430844783782959
			],
			"type":"VEC3"
		},
		{
			"bufferView":1,
			"componentType":5126,
			"count":47208,
			"type":"VEC3"
		},
		{
			"bufferView":2,
			"componentType":5126,
			"count":47208,
			"type":"VEC2"
		},
		{
			"bufferView":3,
			"componentType":5126,
			"count":47208,
			"type":"VEC4"
		},
		{
			"bufferView":4,
			"componentType":5123,
			"count":268224,
			"type":"SCALAR"
		},
		{
			"bufferView":5,
			"componentType":5126,
			"count":3320,
			"max":[
				1.2906179428100586,
				1.9640121459960938,
				0.8727588653564453
			],
			"min":[
				-1.2906179428100586,
				1.7077858448028564,
				-1.1645114421844482
			],
			"type":"VEC3"
		},
		{
			"bufferView":6,
			"componentType":5126,
			"count":3320,
			"type":"VEC3"
		},
		{
			"bufferView":7,
			"componentType":5126,
			"count":3320,
			"type":"VEC2"
		},
		{
			"bufferView":8,
			"componentType":5126,
			"count":3320,
			"type":"VEC4"
		},
		{
			"bufferView":9,
			"componentType":5123,
			"count":18144,
			"type":"SCALAR"
		},
		{
			"bufferView":10,
			"componentType":5126,
			"count":4198,
			"max":[
				1.2200359106063843,
				1.4951319694519043,
				1.264433741569519
			],
			"min":[
				-1.2200359106063843,
				0.0019235610961914062,
				0.6063647270202637
			],
			"type":"VEC3"
		},
		{
			"bufferView":11,
			"componentType":5126,
			"count":4198,
			"type":"VEC3"
		},
		{
			"bufferView":12,
			"componentType":5126,
			"count":4198,
			"type":"VEC2"
		},
		{
			"bufferView":13,
			"componentType":5126,
			"count":4198,
			"type":"VEC4"
		},
		{
			"bufferView":14,
			"componentType":5123,
			"count":23232,
			"type":"SCALAR"
		},
		{
			"bufferView":15,
			"componentType":5126,
			"count":297,
			"max":[
				0.9823082685470581,
				2.7123165130615234,
				-0.7857365608215332
			],
			"min":[
				-0.9844392538070679,
				2.4076194763183594,
				-0.8498886823654175
			],
			"type":"VEC3"
		},
		{
			"bufferView":16,
			"componentType":5126,
			"count":297,
			"type":"VEC3"
		},
		{
			"bufferView":17,
			"componentType":5126,
			"count":297,
			"type":"VEC2"
		},
		{
			"bufferView":18,
			"componentType":5126,
			"count":297,
			"type":"VEC4"
		},
		{
			"bufferView":19,
			"componentType":5123,
			"count":1536,
			"type":"SCALAR"
		},
		{
			"bufferView":20,
			"componentType":5126,
			"count":299,
			"max":[
				0.9952155351638794,
				2.692920684814453,
				1.1055240631103516
			],
			"min":[
				-0.9973465204238892,
				2.38838791847229,
				1.0135807991027832
			],
			"type":"VEC3"
		},
		{
			"bufferView":21,
			"componentType":5126,
			"count":299,
			"type":"VEC3"
		},
		{
			"bufferView":22,
			"componentType":5126,
			"count":299,
			"type":"VEC2"
		},
		{
			"bufferView":23,
			"componentType":5126,
			"count":299,
			"type":"VEC4"
		},
		{
			"bufferView":24,
			"componentType":5123,
			"count":1536,
			"type":"SCALAR"
		},
		{
			"bufferView":25,
			"componentType":5126,
			"count":404,
			"max":[
				0.9177961349487305,
				1.8218356370925903,
				0.23189407587051392
			],
			"min":[
				-0.9177957773208618,
				1.8062447309494019,
				0.1718660295009613
			],
			"type":"VEC3"
		},
		{
			"bufferView":26,
			"componentType":5126,
			"count":404,
			"type":"VEC3"
		},
		{
			"bufferView":27,
			"componentType":5126,
			"count":404,
			"type":"VEC2"
		},
		{
			"bufferView":28,
			"componentType":5123,
			"count":708,
			"type":"SCALAR"
		},
		{
			"bufferView":29,
			"componentType":5126,
			"count":408,
			"max":[
				0.9095701575279236,
				1.8252391815185547,
				-0.5939898490905762
			],
			"min":[
				-0.9095703363418579,
				1.8116989135742188,
				-0.6539962291717529
			],
			"type":"VEC3"
		},
		{
			"bufferView":30,
			"componentType":5126,
			"count":408,
			"type":"VEC3"
		},
		{
			"bufferView":31,
			"componentType":5126,
			"count":408,
			"type":"VEC2"
		},
		{
			"bufferView":32,
			"componentType":5123,
			"count":708,
			"type":"SCALAR"
		},
		{
			"bufferView":33,
			"componentType":5126,
			"count":400,
			"max":[
				0.6992402672767639,
				0.4682469367980957,
				0.9993683099746704
			],
			"min":[
				-0.6992400884628296,
				0.40846943855285645,
				0.9694644212722778
			],
			"type":"VEC3"
		},
		{
			"bufferView":34,
			"componentType":5126,
			"count":400,
			"type":"VEC3"
		},
		{
			"bufferView":35,
			"componentType":5126,
			"count":400,
			"type":"VEC2"
		},
		{
			"bufferView":36,
			"componentType":5123,
			"count":708,
			"type":"SCALAR"
		},
		{
			"bufferView":37,
			"componentType":5126,
			"count":402,
			"max":[
				0.8096423149108887,
				1.1278295516967773,
				0.8542358875274658
			],
			"min":[
				-0.8096420764923096,
				1.068110466003418,
				0.8190197944641113
			],
			"type":"VEC3"
		},
		{
			"bufferView":38,
			"componentType":5126,
			"count":402,
			"type":"VEC3"
		},
		{
			"bufferView":39,
			"componentType":5126,
			"count":402,
			"type":"VEC2"
		},
		{
			"bufferView":40,
			"componentType":5123,
			"count":708,
			"type":"SCALAR"
		}
	],
	"bufferViews":[
		{
			"buffer":0,
			"byteLength":566496,
			"byteOffset":0,
			"target":34962
		},
		{
			"buffer":0,
			"byteLength":566496,
			"byteOffset":566496,
			"target":34962
		},
		{
			"buffer":0,
			"byteLength":377664,
			"byteOffset":1132992,
			"target":34962
		},
		{
			"buffer":0,
			"byteLength":755328,
			"byteOffset":1510656,
			"target":34962
		},
		{
			"buffer":0,
			"byteLength":536448,
			"byteOffset":2265984,
			"target":34963
		},
		{
			"buffer":0,
			"byteLength":39840,
			"byteOffset":2802432,
			"target":34962
		},
		{
			"buffer":0,
			"byteLength":39840,
			"byteOffset":2842272,
			"target":34962
		},
		{
			"buffer":0,
			"byteLength":26560,
			"byteOffset":2882112,
			"target":34962
		},
		{
			"buffer":0,
			"byteLength":53120,
			"byteOffset":2908672,
			"target":34962
		},
		{
			"buffer":0,
			"byteLength":36288,
			"byteOffset":2961792,
			"target":34963
		},
		{
			"buffer":0,
			"byteLength":50376,
			"byteOffset":2998080,
			"target":34962
		},
		{
			"buffer":0,
			"byteLength":50376,
			"byteOffset":3048456,
			"target":34962
		},
		{
			"buffer":0,
			"byteLength":33584,
			"byteOffset":3098832,
			"target":34962
		},
		{
			"buffer":0,
			"byteLength":67168,
			"byteOffset":3132416,
			"target":34962
		},
		{
			"buffer":0,
			"byteLength":46464,
			"byteOffset":3199584,
			"target":34963
		},
		{
			"buffer":0,
			"byteLength":3564,
			"byteOffset":3246048,
			"target":34962
		},
		{
			"buffer":0,
			"byteLength":3564,
			"byteOffset":3249612,
			"target":34962
		},
		{
			"buffer":0,
			"byteLength":2376,
			"byteOffset":3253176,
			"target":34962
		},
		{
			"buffer":0,
			"byteLength":4752,
			"byteOffset":3255552,
			"target":34962
		},
		{
			"buffer":0,
			"byteLength":3072,
			"byteOffset":3260304,
			"target":34963
		},
		{
			"buffer":0,
			"byteLength":3588,
			"byteOffset":3263376,
			"target":34962
		},
		{
			"buffer":0,
			"byteLength":3588,
			"byteOffset":3266964,
			"target":34962
		},
		{
			"buffer":0,
			"byteLength":2392,
			"byteOffset":3270552,
			"target":34962
		},
		{
			"buffer":0,
			"byteLength":4784,
			"byteOffset":3272944,
			"target":34962
		},
		{
			"buffer":0,
			"byteLength":3072,
			"byteOffset":3277728,
			"target":34963
		},
		{
			"buffer":0,
			"byteLength":4848,
			"byteOffset":3280800,
			"target":34962
		},
		{
			"buffer":0,
			"byteLength":4848,
			"byteOffset":3285648,
			"target":34962
		},
		{
			"buffer":0,
			"byteLength":3232,
			"byteOffset":3290496,
			"target":34962
		},
		{
			"buffer":0,
			"byteLength":1416,
			"byteOffset":3293728,
			"target":34963
		},
		{
			"buffer":0,
			"byteLength":4896,
			"byteOffset":3295144,
			"target":34962
		},
		{
			"buffer":0,
			"byteLength":4896,
			"byteOffset":3300040,
			"target":34962
		},
		{
			"buffer":0,
			"byteLength":3264,
			"byteOffset":3304936,
			"target":34962
		},
		{
			"buffer":0,
			"byteLength":1416,
			"byteOffset":3308200,
			"target":34963
		},
		{
			"buffer":0,
			"byteLength":4800,
			"byteOffset":3309616,
			"target":34962
		},
		{
			"buffer":0,
			"byteLength":4800,
			"byteOffset":3314416,
			"target":34962
		},
		{
			"buffer":0,
			"byteLength":3200,
			"byteOffset":3319216,
			"target":34962
		},
		{
			"buffer":0,
			"byteLength":1416,
			"byteOffset":3322416,
			"target":34963
		},
		{
			"buffer":0,
			"byteLength":4824,
			"byteOffset":3323832,
			"target":34962
		},
		{
			"buffer":0,
			"byteLength":4824,
			"byteOffset":3328656,
			"target":34962
		},
		{
			"buffer":0,
			"byteLength":3216,
			"byteOffset":3333480,
			"target":34962
		},
		{
			"buffer":0,
			"byteLength":1416,
			"byteOffset":3336696,
			"target":34963
		}
	],
	"samplers":[
		{
			"magFilter":9729,
			"minFilter":9987
		}
	],
	"buffers":[
		{
			"byteLength":3338112,
			"uri":"chair.bin"
		}
	]
}
